<svg width="1200" height="300" viewBox="0 0 1200 300" fill="none" xmlns="http://www.w3.org/2000/svg">
<path d="M197.426 166.646C187.89 186.341 167.53 197.816 145.66 191.715C111.459 182.17 103.289 136.031 131.684 114.925C151.682 100.052 179.607 105.755 193.049 126.269L197.381 133.6L269.973 89.3091C249.852 51.8611 210.651 25.9918 168.037 22.4667C60.177 13.5453 -8.40905 134.427 53.3225 222.998C84.6517 267.949 140.496 288.648 193.587 272.613C225.785 262.887 254.143 239.58 270 210.023L197.426 166.646ZM202.92 110.546C181.678 86.4347 143.996 82.2045 118.979 103.13C88.6984 128.452 90.2854 176.087 122.46 199.086C148.314 217.575 182.238 213.164 202.852 189.306L216.895 197.807C217.56 198.697 208.377 207.384 207.156 208.441C162.254 247.376 91.7007 221.67 82.0383 163.563C74.2342 116.62 108.05 74.0786 155.964 73.2154C180.186 72.777 201.834 83.8722 217.542 101.778L202.92 110.546ZM172.486 259.656C92.9305 270.579 29.1914 194.408 51.9434 117.926C64.4724 75.8141 102.48 42.9352 146.926 39.7716C155.607 39.1524 166.11 39.3603 174.692 40.671C202.942 44.978 229.628 61.2389 246.475 84.1569L232.241 92.884C201.4 53.818 144.814 43.2244 103.47 72.7137C49.0768 111.499 50.8131 193.871 107.264 229.642C148.725 255.909 202.061 245.609 231.852 207.37L246.023 215.663C228.195 239.088 201.966 255.611 172.486 259.656Z" fill="white"/>
<path d="M171.242 149.897C171.242 157.684 164.93 163.997 157.14 163.997C149.349 163.997 143.033 157.684 143.033 149.897C143.033 142.11 149.349 135.8 157.14 135.8C164.93 135.8 171.242 142.11 171.242 149.897Z" fill="white"/>
<path d="M400.042 219.693C388.534 219.693 378.234 217.002 369.139 211.619C360.107 206.237 352.992 198.38 347.795 188.048C342.598 177.654 340 164.972 340 150C340 135.832 342.537 123.552 347.61 113.158C352.683 102.703 359.766 94.6293 368.861 88.9375C377.955 83.1839 388.503 80.3071 400.506 80.3071C409.353 80.3071 417.488 82.0394 424.912 85.5039C432.398 88.9685 438.43 94.1034 443.008 100.909C447.648 107.652 450.123 116.004 450.432 125.965H432.707C432.336 119.345 430.604 113.87 427.51 109.539C424.479 105.147 420.55 101.868 415.725 99.7023C410.899 97.4751 405.579 96.3615 399.763 96.3615C391.782 96.3615 384.606 98.4959 378.234 102.765C371.923 106.972 366.943 113.066 363.293 121.046C359.643 129.027 357.818 138.647 357.818 149.907C357.818 162.714 359.735 173.076 363.571 180.995C367.407 188.852 372.542 194.606 378.976 198.256C385.41 201.844 392.525 203.638 400.32 203.638C407.435 203.638 413.312 202.37 417.952 199.834C422.654 197.235 426.242 193.832 428.717 189.626C431.191 185.419 432.583 180.871 432.893 175.984H450.432C449.875 184.955 447.493 192.719 443.286 199.277C439.141 205.835 433.419 210.877 426.118 214.403C418.818 217.93 410.126 219.693 400.042 219.693Z" fill="white"/>
<path d="M488.325 217.744V82.8127H569.989V99.0527H498.069L505.586 90.7935V144.525L498.069 139.514H565.163V155.568H500.76L505.586 150.093V210.042L498.069 201.318H571.288V217.744H488.325Z" fill="white"/>
<path d="M608.117 217.744V82.8127H629.089L675.489 167.075L690.616 199.555H691.358L688.481 166.518V82.8127H705.835V217.744H684.862L638.833 134.038L623.985 101.837H623.15L625.47 135.43V217.744H608.117Z" fill="white"/>
<path d="M777.026 217.744V107.312C777.026 105.147 777.428 103.352 778.232 101.93C779.098 100.507 780.243 99.5477 781.666 99.0527H740.555V82.8127H830.942V99.0527H794.565V217.744H777.026Z" fill="white"/>
<path d="M865.644 217.744V82.8127H947.308V99.0527H875.388L882.905 90.7935V144.525L875.388 139.514H942.482V155.568H878.079L882.905 150.093V210.042L875.388 201.318H948.607V217.744H865.644Z" fill="white"/>
<path d="M1019.5 172.179L972.077 82.8127H992.493L1010.5 119.654L1027.01 152.877H1028.5L1045.11 119.747L1063.3 82.8127H1083.62L1036.2 172.179H1019.5ZM1019.03 217.744V163.27H1036.57V217.744H1019.03Z" fill="white"/>
<path d="M1116.46 217.744V82.8127H1198.13V99.0527H1126.21L1133.73 90.7935V144.525L1126.21 139.514H1193.3V155.568H1128.9L1133.73 150.093V210.042L1126.21 201.318H1199.43V217.744H1116.46Z" fill="white"/>
</svg>
