<svg width="300" height="300" viewBox="0 0 300 300" fill="none" xmlns="http://www.w3.org/2000/svg">
<path d="M197.426 166.646C187.89 186.341 167.53 197.816 145.66 191.715C111.459 182.17 103.289 136.031 131.684 114.925C151.682 100.052 179.607 105.755 193.049 126.269L197.381 133.6L269.973 89.3091C249.852 51.8611 210.651 25.9918 168.037 22.4667C60.177 13.5453 -8.40905 134.427 53.3225 222.998C84.6517 267.949 140.496 288.648 193.587 272.613C225.785 262.887 254.143 239.58 270 210.023L197.426 166.646ZM202.92 110.546C181.678 86.4347 143.996 82.2045 118.979 103.13C88.6984 128.452 90.2854 176.087 122.46 199.086C148.314 217.575 182.238 213.164 202.852 189.306L216.895 197.807C217.56 198.697 208.377 207.384 207.156 208.441C162.254 247.376 91.7007 221.67 82.0383 163.563C74.2342 116.62 108.05 74.0786 155.964 73.2154C180.186 72.777 201.834 83.8722 217.542 101.778L202.92 110.546ZM172.486 259.656C92.9305 270.579 29.1914 194.408 51.9434 117.926C64.4724 75.8141 102.48 42.9352 146.926 39.7716C155.607 39.1524 166.11 39.3603 174.692 40.671C202.942 44.978 229.628 61.2389 246.475 84.1569L232.241 92.884C201.4 53.818 144.814 43.2244 103.47 72.7137C49.0768 111.499 50.8131 193.871 107.264 229.642C148.725 255.909 202.061 245.609 231.852 207.37L246.023 215.663C228.195 239.088 201.966 255.611 172.486 259.656Z" fill="white"/>
<path d="M171.242 149.897C171.242 157.684 164.93 163.997 157.14 163.997C149.349 163.997 143.033 157.684 143.033 149.897C143.033 142.11 149.349 135.8 157.14 135.8C164.93 135.8 171.242 142.11 171.242 149.897Z" fill="white"/>
</svg>
